<svg xmlns="http://www.w3.org/2000/svg" viewBox="0 0 101 113"><defs><style>.cls-1,.cls-2,.cls-4{fill:#fff;}.cls-2,.cls-3,.cls-4,.cls-5,.cls-6,.cls-8,.cls-9{stroke:#00b1e0;stroke-linecap:round;}.cls-2,.cls-3,.cls-6,.cls-8,.cls-9{stroke-linejoin:round;}.cls-2,.cls-4,.cls-5,.cls-6,.cls-9{stroke-width:2px;}.cls-3,.cls-5,.cls-6,.cls-8{fill:none;}.cls-3{stroke-width:2.5px;}.cls-4,.cls-5{stroke-miterlimit:10;}.cls-7,.cls-9{fill:#00b1e0;}.cls-8{stroke-width:0.5px;}</style></defs><g id="Layer_2" data-name="Layer 2"><g id="Layer_1-2" data-name="Layer 1"><rect class="cls-1" x="37.5" y="39.5" width="14" height="12"/><path class="cls-2" d="M65.5,20.5c2,5.88,2.69,12.3.25,18.53l-1.23,3.14-9-3.67,3-18"/><path class="cls-2" d="M22.3,20.5c-2,5.88-2.68,12.3-.25,18.53l1.24,3.14L32.5,38.5l-2-18"/><path class="cls-2" d="M43.5,9.5l15,12.25,0,1.56a2.32,2.32,0,0,1,.65-.08A2.67,2.67,0,0,1,61.66,25a2.74,2.74,0,0,1-2.42,3.67l.15.95A12.51,12.51,0,0,1,46.86,42.17H42.62A13.27,13.27,0,0,1,29.35,28.9l0-.34a2.77,2.77,0,0,1-2.26-4,2.61,2.61,0,0,1,2.6-1.46h.1L30,20.34"/><line class="cls-3" x1="43.74" y1="9.46" x2="44.33" y2="9.46"/><path class="cls-4" d="M27.5,80.5,14.35,79.05l2-9.39,2.17-10.45a19.35,19.35,0,0,1,2.3-5.84A8,8,0,0,1,25.21,50l5.9-1.94L37,46.15"/><path class="cls-4" d="M36.88,46.74c1.32,3.13,4,4.75,7.59,4.75a7.19,7.19,0,0,0,7.24-4.75l.13-.59,12.37,5.07c3.57,1.47,6,3.64,7.57,9l4.89,20.24-62.17,0"/><line class="cls-5" x1="27.7" y1="80.43" x2="27.77" y2="67.89"/><line class="cls-6" x1="37.69" y1="46.68" x2="37.69" y2="41.75"/><line class="cls-6" x1="51.84" y1="46.15" x2="51.84" y2="41.21"/><path class="cls-7" d="M51,25.9a.06.06,0,0,1-.12,0,1.29,1.29,0,0,0-1.21-.59c-1.34,0-1.34.6-1.34.19v-4a1.34,1.34,0,0,1,1.34-1.33h0A1.33,1.33,0,0,1,51,21.54Z"/><path class="cls-7" d="M36.35,25.9a.06.06,0,0,0,.12,0,1.31,1.31,0,0,1,1.22-.59c1.33,0,1.33.6,1.33.19v-4a1.33,1.33,0,0,0-1.33-1.33h0a1.34,1.34,0,0,0-1.34,1.33Z"/><path class="cls-7" d="M39.43,29.64h9.72a.77.77,0,0,1,.77.77v0A5.63,5.63,0,0,1,44.3,36h0a5.63,5.63,0,0,1-5.63-5.63v0a.77.77,0,0,1,.77-.77Z"/><path class="cls-5" d="M58.25,49.12C55.77,55,51.4,58.06,44.62,58.06S32.82,55,30.34,49.12"/><path class="cls-2" d="M43.74,1h4A17.53,17.53,0,0,1,65.26,18.53V20.7a0,0,0,0,1,0,0h-4A17.53,17.53,0,0,1,43.74,3.17V1A0,0,0,0,1,43.74,1Z"/><path class="cls-2" d="M40.06,1h4a0,0,0,0,1,0,0V3.17A17.53,17.53,0,0,1,26.52,20.7h-4a0,0,0,0,1,0,0V18.53A17.53,17.53,0,0,1,40.06,1Z" transform="translate(66.58 21.7) rotate(-180)"/><line class="cls-5" x1="60.5" y1="80.5" x2="60.5" y2="68.5"/><path class="cls-2" d="M75.5,92.5l18-6.46a5.6,5.6,0,0,1,1.5-.21,5,5,0,0,1,4.82,3.3A4.67,4.67,0,0,1,96.45,95L66,107l-4,2-36-3V80"/><path class="cls-2" d="M26.5,80.5l47.62.55c2.68.1,4.82,2.7,4.82,5.88h0a5.77,5.77,0,0,1-3.83,5.72L40.23,97.5a1.79,1.79,0,0,0-1.73,2"/><path class="cls-8" d="M68.71,86.21l4.76.13a2.73,2.73,0,0,1,2.41,3h0a2.69,2.69,0,0,1-2.52,2.85"/><path class="cls-8" d="M98.15,92.45h0a1.93,1.93,0,0,0-2.67-1.14l-4.15,1.57"/><polygon class="cls-9" points="25.71 105.93 1.62 112 1 79 26 79.31 25.71 105.93"/></g></g></svg>