<svg xmlns="http://www.w3.org/2000/svg" viewBox="0 0 102 102"><defs><style>.cls-1{fill:#fff;}.cls-1,.cls-2,.cls-3,.cls-4{stroke:#00b1e0;stroke-miterlimit:10;}.cls-1,.cls-2,.cls-3{stroke-width:2px;}.cls-2,.cls-4{fill:none;}.cls-2,.cls-3,.cls-4{stroke-linecap:round;}.cls-3{fill:#ebfbff;}.cls-4{stroke-width:0.5px;}.cls-5{fill:#00b1e0;}</style></defs><g id="Layer_2" data-name="Layer 2"><g id="Layer_1-2" data-name="Layer 1"><circle class="cls-1" cx="51" cy="51" r="50"/><line class="cls-2" x1="47.38" y1="6.5" x2="50.38" y2="50"/><line class="cls-2" x1="22.38" y1="67.5" x2="49.38" y2="52.5"/><circle class="cls-3" cx="50.38" cy="51.5" r="2"/><line class="cls-4" x1="32.16" y1="12.51" x2="44.75" y2="12.51"/><line class="cls-4" x1="37.64" y1="17.59" x2="44.75" y2="17.59"/><line class="cls-4" x1="41.19" y1="22.7" x2="44.75" y2="22.7"/><path class="cls-5" d="M96.79,50.58C95.51,26.06,77.53,6,53.29,4.72l-1,47.5-31,33C60.29,116.22,98.29,79.22,96.79,50.58ZM55.48,69.87l0-2.49A10,10,0,0,0,61,58.58a22.7,22.7,0,0,0-.29-3.49l-5.14.06,0-3.14,4.63,0a33.94,33.94,0,0,1-.6-5.39c-.07-5.88,3.93-9.77,9.47-9.83a10.39,10.39,0,0,1,5.45,1.19l-1,3.3a9.1,9.1,0,0,0-4.45-.95c-3.89,0-5.46,2.76-5.42,6.3a26.26,26.26,0,0,0,.66,5.33l7.18-.08,0,3.14-6.79.08a17.42,17.42,0,0,1-.14,5.59,10.4,10.4,0,0,1-3.38,5.43v.1L76.14,66l0,3.64Z"/></g></g></svg>