<svg xmlns="http://www.w3.org/2000/svg" viewBox="0 0 130.16 129.83"><defs><style>.cls-1{fill:#fff;}.cls-1,.cls-10,.cls-11,.cls-3,.cls-4,.cls-5,.cls-6,.cls-7,.cls-8,.cls-9{stroke:#00b1e0;}.cls-1,.cls-11,.cls-3,.cls-5,.cls-7,.cls-8,.cls-9{stroke-miterlimit:10;}.cls-1,.cls-3,.cls-8{stroke-width:2px;}.cls-2,.cls-4{fill:#00b1e0;}.cls-10,.cls-11,.cls-3,.cls-5,.cls-6,.cls-7,.cls-8,.cls-9{fill:none;}.cls-10,.cls-11,.cls-3,.cls-4,.cls-5,.cls-6,.cls-7{stroke-linecap:round;}.cls-10,.cls-4,.cls-6{stroke-linejoin:round;}.cls-4,.cls-6,.cls-7{stroke-width:0.5px;}.cls-5{stroke-width:2.29px;}.cls-10,.cls-9{stroke-width:0.41px;}.cls-11{stroke-width:1.25px;}</style></defs><g id="Layer_2" data-name="Layer 2"><g id="Layer_1-2" data-name="Layer 1"><path class="cls-1" d="M72.27,63.47V37.73a6.86,6.86,0,0,1,6.87-6.86h43.15a6.87,6.87,0,0,1,6.87,6.86V122a6.87,6.87,0,0,1-6.87,6.86H79.14A6.86,6.86,0,0,1,72.27,122V81.9"/><path class="cls-1" d="M71.6,38.38h-59A11.62,11.62,0,0,0,1,50v52.79a11.62,11.62,0,0,0,11.62,11.62h59"/><path class="cls-2" d="M72.69,114.3l-59.6-.17A12.91,12.91,0,0,1,0,101.41H72.59"/><path class="cls-2" d="M129.58,121.57l0,2.39-5,4.61-43.21.73c-6,0-9.78-5.7-9.78-12.73h58"/><path class="cls-3" d="M44.28,30.13A11.59,11.59,0,0,1,64.9,31.22"/><path class="cls-3" d="M54.31,12.53A21.78,21.78,0,0,1,74.37,25.82"/><path class="cls-3" d="M35.89,22.71A21.73,21.73,0,0,1,54.31,12.53"/><path class="cls-3" d="M54.31,1A34.13,34.13,0,0,1,84.49,19.18"/><path class="cls-3" d="M26,17A34.12,34.12,0,0,1,55,1"/><line class="cls-3" x1="34.59" y1="126.85" x2="72.99" y2="126.37"/><line class="cls-4" x1="10.64" y1="51.96" x2="18.95" y2="51.96"/><line class="cls-4" x1="15.16" y1="51.96" x2="12.67" y2="47.39"/><line class="cls-4" x1="15.52" y1="44.53" x2="12.67" y2="47.39"/><line class="cls-4" x1="15.59" y1="48.03" x2="15.52" y2="44.53"/><line class="cls-4" x1="18.26" y1="46.1" x2="15.59" y2="48.03"/><line class="cls-4" x1="15.52" y1="44.53" x2="18.33" y2="46.05"/><line class="cls-5" x1="92.84" y1="31.75" x2="108.15" y2="31.75"/><line class="cls-6" x1="76.59" y1="40.43" x2="83.33" y2="40.43"/><line class="cls-6" x1="80.26" y1="40.43" x2="78.23" y2="36.86"/><line class="cls-6" x1="80.55" y1="34.63" x2="78.23" y2="36.86"/><line class="cls-6" x1="80.61" y1="37.37" x2="80.55" y2="34.63"/><line class="cls-6" x1="82.77" y1="35.86" x2="80.61" y2="37.37"/><line class="cls-6" x1="80.55" y1="34.63" x2="82.83" y2="35.82"/><line class="cls-7" x1="113.44" y1="37.8" x2="122.96" y2="37.8"/><line class="cls-7" x1="113.44" y1="39.61" x2="122.96" y2="39.61"/><line class="cls-8" x1="49.99" y1="115.37" x2="49.99" y2="126.37"/><path class="cls-9" d="M93.84,57.61v5.6c0,.94,2.59,1.7,5.78,1.7s5.78-.76,5.78-1.7l0-5.5L100.2,59Z"/><polyline class="cls-10" points="89.97 56.24 100.2 58.96 110.95 56.24 100.08 53.53 89.97 56.24"/><line class="cls-10" x1="106.96" y1="57.21" x2="106.92" y2="60.7"/><path class="cls-10" d="M105.42,61.9c0,1-2.59,1.71-5.78,1.71s-5.79-.76-5.79-1.71"/><line class="cls-10" x1="99.97" y1="55.91" x2="106.94" y2="57.26"/><line class="cls-10" x1="106.96" y1="57.21" x2="108.16" y2="60.65"/><line class="cls-10" x1="95.69" y1="58.58" x2="95.69" y2="61.76"/><circle class="cls-10" cx="101.01" cy="67.85" r="1.39"/><path class="cls-10" d="M102.1,68.93l10.69-5.7v0a1.35,1.35,0,0,0-.89-2.55l-.07,0-11.07,5.71"/><path class="cls-10" d="M108.67,65.36l-2.37,1.3a1.35,1.35,0,0,0,.82-1.72,1.34,1.34,0,0,0-1.72-.82l2.15-1.21-.5.25a1.35,1.35,0,0,1,.9,2.54"/><line class="cls-10" x1="107.86" y1="66.12" x2="110.19" y2="66.98"/><line class="cls-10" x1="108.31" y1="65.72" x2="111.1" y2="66.45"/><path class="cls-11" d="M64.12,69.56A9.21,9.21,0,0,1,82,72.69"/><path class="cls-11" d="M81.62,75.34a9.22,9.22,0,0,1-18.05-2.65"/><line class="cls-11" x1="80.11" y1="71.33" x2="82" y2="72.69"/><line class="cls-11" x1="83.36" y1="71.06" x2="82" y2="72.69"/><line class="cls-11" x1="61.73" y1="73.68" x2="63.71" y2="72.44"/><line class="cls-11" x1="64.96" y1="74.15" x2="63.71" y2="72.44"/><circle class="cls-10" cx="101.01" cy="67.85" r="1.39"/></g></g></svg>