<svg xmlns="http://www.w3.org/2000/svg" width="50.198" height="35.866" viewBox="0 0 50.198 35.866">
  <g id="g4360" transform="translate(-4.649 200.777)">
    <path id="path4382" d="M15.313-68V-69.65l-.327,0A1.641,1.641,0,0,0,13.581-69a1.523,1.523,0,0,0-.212.834v1.344a.817.817,0,0,1-.815.817H7.411a.818.818,0,0,1-.817-.817v-1.336a1.358,1.358,0,0,0-.646-1.178,2.288,2.288,0,0,0-1.219-.31h-.08v3.29a1.706,1.706,0,0,0,1.7,1.706h6.962a1.811,1.811,0,0,0,1.188-.464l0,0a1.86,1.86,0,0,0,1.153.466h1.634a1.859,1.859,0,0,0,1.233-.466,1.875,1.875,0,0,0,1.233.466h2.568a1.351,1.351,0,0,0,1.054-.5,1.8,1.8,0,0,0,1.323.5h1.492A1.712,1.712,0,0,0,27.9-66.359v-1.6a1.706,1.706,0,0,0-1.681-1.687H23.477a1.706,1.706,0,0,0-1.692,1.686V-66.4a.414.414,0,0,1-.414.4H20.358a.818.818,0,0,1-.817-.817v-5.917l-.327,0a1.64,1.64,0,0,0-1.4.644,1.524,1.524,0,0,0-.213.834v4.439a.817.817,0,0,1-.817.815H15.112a3.036,3.036,0,0,0,.2-.961C15.312-67.314,15.313-67.659,15.313-68Zm-4.059-3.38.88.88a.268.268,0,0,1,0,.377l-.88.88a.268.268,0,0,1-.377,0l-.817-.817-.817.817a.268.268,0,0,1-.377,0l-.88-.88a.268.268,0,0,1,0-.377l.88-.88a.267.267,0,0,1,.377,0l.817.817.817-.817A.267.267,0,0,1,11.254-71.385Zm12.4,5.377H25.62a.412.412,0,0,0,.411-.4v-1.572a.412.412,0,0,0-.407-.412h-1.56a.412.412,0,0,0-.411.384v2Z" transform="translate(0 -103.129)" fill-rule="evenodd"/>
    <path id="path4384" d="M160.149-72.743l.327,0a1.641,1.641,0,0,1,1.405.644,1.523,1.523,0,0,1,.213.834v4.436a.818.818,0,0,0,.815.817h1.33a.412.412,0,0,0,.412-.412v-1.75a1.523,1.523,0,0,1,.214-.834,1.641,1.641,0,0,1,1.405-.644l.326,0q0,1.645,0,3.29a1.706,1.706,0,0,1-1.706,1.706h-3.034a1.706,1.706,0,0,1-1.706-1.706ZM163.618-64l.882.882a.268.268,0,0,1,0,.378l-.882.882a.268.268,0,0,1-.378,0l-.882-.882a.268.268,0,0,1,0-.378L163.24-64A.268.268,0,0,1,163.618-64ZM148.43-69.644l-.408.809h.816a.646.646,0,0,0,.6-.369l.239-.517a.494.494,0,0,0-.017-.54.417.417,0,0,0-.325-.157H149l.408-.809H148.6a.646.646,0,0,0-.6.369l-.239.517a.494.494,0,0,0,.017.54.417.417,0,0,0,.325.157Zm8.03-2.531.88.88a.268.268,0,0,1,0,.377l-.88.88a.268.268,0,0,1-.377,0l-.88-.88a.268.268,0,0,1,0-.377l.88-.88A.268.268,0,0,1,156.46-72.175Zm-2.41-.568-.326,0a1.641,1.641,0,0,0-1.405.644,1.523,1.523,0,0,0-.214.834q0,2.218,0,4.436a.818.818,0,0,1-.815.817h-5.149a.818.818,0,0,1-.815-.817v-1.336a1.358,1.358,0,0,0-.646-1.178,2.287,2.287,0,0,0-1.219-.31h-.08v3.3a1.706,1.706,0,0,0,1.7,1.7h6.773a1.858,1.858,0,0,0,1.173-.465,1.859,1.859,0,0,0,1.2.466h2.615a1.706,1.706,0,0,0,1.706-1.706v-3.29l-.326,0a1.641,1.641,0,0,0-1.405.644,1.524,1.524,0,0,0-.213.834l0,1.77a.412.412,0,0,1-.411.391h-1.331a.817.817,0,0,1-.815-.817Z" transform="translate(-111.747 -103.128)" fill-rule="evenodd"/>
    <path id="path4386" d="M119.648-151.765a3.281,3.281,0,0,1,3.281,3.28,3.281,3.281,0,0,1-3.281,3.281,3.281,3.281,0,0,1-3.28-3.281,3.281,3.281,0,0,1,3.28-3.28" transform="translate(-89.987 -39.478)" fill="#fdcb01" fill-rule="evenodd"/>
    <g id="g4388" transform="translate(33.302 -183.203)">
      <g id="g4420">
        <path id="path4422" d="M151.949-105.687l.316.163c-.033-.011-.066-.024-.1-.039Zm.317.163.363.065A1.176,1.176,0,0,1,152.265-105.524Zm.363.065.361-.048A1.257,1.257,0,0,1,152.628-105.459Zm.362-.049.3-.116A1.907,1.907,0,0,1,152.99-105.507Zm.3-.117,5.71-3.282-5.371,3.1C153.528-105.746,153.415-105.681,153.294-105.624Zm5.721-3.289.128-.125.058-.151.019-.168c0,.113-.01.226-.019.338Zm.2-.446-.007-1.077h0c.012.264.022.665.007,1.077" transform="translate(-151.949 110.435)" fill="#ed2f59" fill-rule="evenodd"/>
      </g>
    </g>
    <path id="path4424" d="M86.481-196.736v4.573l-.042.006h0l-.045.006h0l-.046.006H86.34l-.045.007h0l-.044.007h0l-.012,0h0l-.046.008h0l-.044.008h0l-.046.009h0l-.045.01h0l-.008,0-.044.01h0l-.045.01h0a4.194,4.194,0,0,0-.59.189h0l-.111.046-.109.049h0l-.041.02h0l-.041.02h0l-.006,0h0l-.036.018h0l-.037.019h0l-.016.009h0l-.035.019-.035.019h0l-.012.007-.051.029-.01.006-.01.006h0l-.011.006h0l-.036.022h0l-.037.022h0l-.005,0-.037.023h0l-.037.024h0l0,0h0q-.167.109-.325.234l-.061.049-.059.05h0l0,0-.033.029-.033.029,0,0h0l-.03.027h0l-.029.027h0l-.015.014-.028.027-.028.027-.01.01-.027.027-.027.027-.016.017-.024.025-.023.025-.023.024-.021.022-.021.023h0l-.026.03h0l-.019.022h0l-.019.022-.02.024h0l-.022.026-.021.026h0l-.016.02-.022.028h0l-.022.027h0l-.013.017q-.075.1-.146.2l-.028.041h0l-.027.04h0l-.008.011h0l-.016.025-.016.026h0l-.022.035h0l-.024.039h0l0,.007h0l-.021.037-.025.044h0l0,0h0l-.021.038h0l-.013.024-.013.024h0l-.021.04h0l-.023.045h0l-.022.044h0l-.023.047h0l-.019.041h0l-.021.046h0l-.015.034,0,.009-.022.051-.017.043h0l-.018.045h0l-.019.051h0l0,.006h0l-.013.036-.027.077h0l-.006.017h0l-.014.043h0l-.014.044-.013.044h0l-.009.031h0l-.009.031h0l-.009.033,0,.015h0l-.013.047-.011.043h0l-.014.058-.009.04h0c0,.016-.007.031-.012.057h0l-.009.045h0l-.011.056h0l-.008.044h0l-.009.056h0l-.007.047h0l-.008.056h0l-.006.045h0l-.006.055h0l-.005.049h0l0,.056h0l0,.047,0,.045h0v.007h0v.014l0,.036,0,.059v.259h0l0,.053,0,.054h0v0h0l0,.051h0l0,.054,0,.054h0l0,.051h0v0q.011.1.027.211h0l.008.051h0l.009.051h0v0h0l.009.05h0l.01.051h0c.01.049.021.1.032.145h0l.007.028h0l.007.029h0l.013.05h0l.014.05h0l.021.07h0l0,.013,0,.014h0l.016.049h0l.016.048h0l.017.048.017.047h0v0h0l.017.046h0l.018.046h0l0,.007h0l.018.045h0l.019.045v0h0l.018.039-.037.022-2.888,1.668-.072.042v-11.3a1.827,1.827,0,0,1,.9-1.576l.031-.018,1.246-.719,4.313-2.49h0a.736.736,0,0,1,.388-.123h0a.819.819,0,0,1,.394.131h0l5.627,3.248a1.827,1.827,0,0,1,.854,1.547v2.859l-.072-.042-6.85-3.96a.363.363,0,0,0-.174-.048.25.25,0,0,0-.121.029.226.226,0,0,0-.089.089.381.381,0,0,0-.042.188h0ZM94.779-184l-3.924-2.265-.036-.021.016-.039v0h0l.018-.042h0l.017-.043h0l0-.005h0l.017-.042h0l.016-.041h0l0-.011h0l.016-.044h0l.015-.043h0v0h0l.015-.045h0l.015-.044h0l0-.007.014-.043h0l.013-.044h0v0h0a4.184,4.184,0,0,0,.131-.605h0q.009-.062.015-.119c0-.04.008-.079.012-.119h0l0-.045h0l0-.046h0v-.006h0l0-.041h0l0-.041h0v-.018h0v-.08h0v-.014c0-.017,0-.037,0-.058V-188h0v-.013h0v-.042h0v-.043h0v-.05h0l0-.044h0v-.006h0q-.011-.2-.04-.4c0-.029-.008-.054-.012-.077s-.008-.049-.014-.077h0v0l-.008-.043-.009-.043v-.006h0l-.009-.039h0l-.009-.039h0l0-.02-.009-.038-.01-.038,0-.014-.01-.037-.01-.037-.006-.022L91-189.166l-.01-.032-.01-.032-.009-.029-.009-.029h0l-.013-.038h0l-.01-.028h0l-.01-.027-.01-.029h0l-.012-.032-.012-.031h0l-.009-.024-.013-.033h0l-.013-.032h0l-.008-.019c-.031-.076-.065-.152-.1-.227l-.022-.044h0l-.022-.043h0l-.006-.012h0l-.014-.027-.014-.027h0l-.02-.037h0l-.022-.04h0l0-.007h0l-.021-.037-.025-.044h0l0,0h0l-.023-.038h0l-.014-.023-.015-.023h0l-.024-.038h0l-.027-.042h0l-.027-.041h0l-.029-.043h0l-.026-.038h0l-.029-.041h0l-.022-.03-.006-.008-.033-.044-.028-.037h0l-.03-.038h0l-.034-.042h0l0-.005h0l-.024-.029-.053-.062h0l-.012-.014h0l-.03-.034h0l-.031-.034-.032-.034h0l-.022-.024h0l-.022-.023h0l-.024-.024-.011-.011h0l-.034-.034-.032-.031h0l-.043-.041-.03-.028h0l-.043-.039h0l-.035-.031h0l-.043-.037h0l-.034-.029h0l-.043-.036h0l-.037-.03h0l-.045-.035h0l-.036-.028h0l-.045-.033h0l-.04-.029h0l-.046-.032h0l-.039-.027-.038-.025h0l-.006,0h0l0,0-.006,0-.03-.02-.05-.032-.009-.005-.03-.019-.045-.027-.045-.026-.047-.027-.048-.026h0l-.047-.025-.048-.025h0l-.046-.023h0l-.049-.024-.049-.023h0l-.047-.021h0q-.1-.043-.2-.082h0l-.048-.019h0l-.049-.018h0l-.048-.017h0l-.049-.017h0l-.142-.044h0l-.028-.008h0l-.028-.008h0l-.05-.014h0l-.05-.013h0l-.071-.017h0l-.014,0-.014,0h0l-.051-.011h0l-.049-.01h0l-.05-.01-.049-.009h0l-.048-.008h0l-.049-.008h-.007l-.048-.007h0l-.049-.006h0l-.043,0v-3.462l.072.042,8.89,5.133.827.477a1.828,1.828,0,0,1,.914,1.569v6.454h0a.735.735,0,0,1-.088.4h0a.82.82,0,0,1-.31.276h0L92.1-178.04a1.827,1.827,0,0,1-1.767-.034l-.827-.478-1.577-.91-.072-.042.072-.042,6.854-3.952a.363.363,0,0,0,.129-.127.251.251,0,0,0,.035-.119.227.227,0,0,0-.033-.121.38.38,0,0,0-.141-.13h0ZM79.6-183.18l3.924-2.266.036-.021.026.033,0,0h0l.028.036h0l.028.036h0l0,0h0l.028.035h0l.028.034h0l.008.009h0l.03.035h0l.029.034h0l0,0h0l.031.035h0l.031.035h0l.005.006.031.033h0l.031.033h0l0,0h0a4.2,4.2,0,0,0,.459.416h0l.1.073.1.069h0l.037.026h0l.038.025h0l.005,0h0l.034.022h0l.035.022h0l.016.01h0l.034.021.034.021h0l.012.007.05.029.01.006.01.006h0l.011.006h0l.037.021h0l.038.021h0l.005,0,.039.021h0l.039.02h0l0,0h0q.178.091.365.164l.073.028.073.027h0l0,0,.042.014.042.014.006,0h0l.038.012h0l.038.012h0l.019.006.037.011.037.011.014,0,.037.01.037.01.023.006.033.008.033.008.033.007.03.007.03.007h0l.039.008h0l.029.006h0l.028.006.031.005h0l.033.006.033.006h0l.025,0,.035.006h0l.035,0h0l.021,0q.122.017.247.026l.049,0h0l.049,0h.366l.045,0h0l.05,0h0l.049,0h0l.052,0h0l.046,0h0l.05,0h0l.037,0h.01l.055-.006.046-.006h0l.048-.007h0l.054-.008h.008l.037-.006.08-.015h0l.018,0h0l.044-.009h0l.045-.01.045-.011h0l.032-.008h0l.031-.008h0l.033-.009.015,0h0l.047-.013.042-.012h0l.057-.017.039-.012h0l.055-.018h0l.044-.015h0l.054-.019h0l.042-.015h0l.053-.02h0l.044-.017h0l.053-.021h0l.042-.018h0l.051-.022h0l.045-.02h0l.051-.024h0l.043-.02.041-.02h0l.007,0h0l.005,0,.007,0,.033-.016.053-.028.009,0,.031-.017.046-.025.045-.026.047-.027.047-.028h0l.045-.028.046-.029h0l.043-.028h0l.045-.03.045-.031h0l.042-.03h0q.085-.061.169-.129h0l.04-.033h0l.04-.033h0l.039-.033h0l.039-.034h0q.056-.05.11-.1h0l.021-.02h0l.021-.021h0l.037-.037h0l.036-.037h0l.051-.053h0l.01-.01.01-.011h0l.035-.038h0l.033-.038h0l.033-.038.032-.038h0l.031-.038h0l.031-.038h0l0-.006h0l.03-.038h0l.03-.039v0h0l.025-.035.037.022,2.888,1.668.072.041-.072.042-8.89,5.133-.827.478a1.827,1.827,0,0,1-1.816.007l-.031-.018-1.245-.719-4.313-2.49h0a.736.736,0,0,1-.3-.275h0a.819.819,0,0,1-.084-.407h0v-6.5a1.827,1.827,0,0,1,.913-1.513l.827-.478,1.577-.91.072-.042v.083l0,7.912a.363.363,0,0,0,.046.175.251.251,0,0,0,.086.09.225.225,0,0,0,.122.032.382.382,0,0,0,.183-.057h0Z" transform="translate(-57.293)" fill="#f40009" fill-rule="evenodd"/>
  </g>
</svg>
